<?xml version="1.0" standalone="no"?><!DOCTYPE svg PUBLIC "-//W3C//DTD SVG 1.1//EN" "http://www.w3.org/Graphics/SVG/1.1/DTD/svg11.dtd"><svg t="1527217083597" class="icon" style="" viewBox="0 0 1024 1024" version="1.1" xmlns="http://www.w3.org/2000/svg" p-id="6145" xmlns:xlink="http://www.w3.org/1999/xlink" width="200" height="200"><defs><style type="text/css"></style></defs><path d="M1008.174545 543.883636c-9.076364-12.101818-223.883636-295.796364-496.174545-295.796363S24.901818 531.781818 15.825455 543.883636L5.352727 558.545455l10.472728 13.963636c9.076364 12.101818 223.883636 295.796364 496.174545 295.796364s487.098182-284.392727 496.174545-296.494546l10.472728-13.963636zM512 821.061818c-216.203636 0-401.454545-207.127273-447.767273-263.214545 46.545455-56.32 232.727273-263.214545 447.767273-263.214546S913.454545 501.527273 959.767273 558.545455C913.454545 614.167273 727.970909 821.061818 512 821.061818z" p-id="6146"></path><path d="M512 369.803636A188.043636 188.043636 0 1 0 700.043636 558.545455 188.276364 188.276364 0 0 0 512 369.803636z m0 329.774546A141.498182 141.498182 0 1 1 653.498182 558.545455 141.730909 141.730909 0 0 1 512 699.345455z" p-id="6147"></path></svg>
