<?xml version="1.0" standalone="no"?><!DOCTYPE svg PUBLIC "-//W3C//DTD SVG 1.1//EN" "http://www.w3.org/Graphics/SVG/1.1/DTD/svg11.dtd"><svg class="icon" width="200px" height="200.00px" viewBox="0 0 1024 1024" version="1.1" xmlns="http://www.w3.org/2000/svg"><path d="M511.05 76.308c-239.938 0-434.267 194.327-434.267 434.267S271.11 944.842 511.05 944.842c239.938 0 434.267-194.327 434.267-434.267-0.475-239.463-194.802-434.267-434.267-434.267z m0 814.844c-209.532 0-380.103-171.046-380.103-380.577S301.518 130.472 511.05 130.472s380.103 170.571 380.103 380.103c-0.475 209.532-170.571 380.577-380.103 380.577z m0 0zM538.133 499.647V239.276c0-15.204-12.353-27.084-27.084-27.084-15.204 0-27.084 12.353-27.084 27.084v271.297c0 7.126 2.852 13.778 7.601 19.006 0.475 0.95 1.424 1.424 1.9 2.374l134.462 134.462c10.452 10.452 27.557 10.452 38.485 0 10.452-10.452 10.452-27.557 0-38.485L538.128 499.645z m0 0z" /></svg>
