<?xml version="1.0" standalone="no"?><!DOCTYPE svg PUBLIC "-//W3C//DTD SVG 1.1//EN" "http://www.w3.org/Graphics/SVG/1.1/DTD/svg11.dtd"><svg class="icon" width="200px" height="200.00px" viewBox="0 0 1024 1024" version="1.1" xmlns="http://www.w3.org/2000/svg"><path d="M809.6 20.48L632.96 199.04a131.84 131.84 0 0 0 0 185.6 128 128 0 0 0 183.04 0l174.08-176a312.32 312.32 0 0 1-72.96 320 304 304 0 0 1-341.12 64l-369.28 403.2a85.76 85.76 0 0 1-122.24 4.48L25.6 940.8a88.32 88.32 0 0 1 0-123.52l396.8-378.88a312.32 312.32 0 0 1 64-347.52 304 304 0 0 1 323.2-70.4z m-138.24 777.6a51.2 51.2 0 0 1 0-101.76h302.08a51.2 51.2 0 0 1 0 101.76z m-167.68 203.52a51.2 51.2 0 0 1 0-101.76h469.76a51.2 51.2 0 0 1 0 101.76z" /></svg>
