<?xml version="1.0" standalone="no"?><!DOCTYPE svg PUBLIC "-//W3C//DTD SVG 1.1//EN" "http://www.w3.org/Graphics/SVG/1.1/DTD/svg11.dtd"><svg t="1527660227044" class="icon" style="" viewBox="0 0 1024 1024" version="1.1" xmlns="http://www.w3.org/2000/svg" p-id="4054" xmlns:xlink="http://www.w3.org/1999/xlink" width="200" height="200"><defs><style type="text/css"></style></defs><path d="M511.948502 398.176792c-65.527509 0-118.939478 52.785993-118.939478 117.85852s53.297974 117.858519 118.939478 117.858519c65.527509 0 118.939478-52.785993 118.939478-117.858519s-53.411969-117.858519-118.939478-117.85852z m0 190.154771c-40.158473 0-72.979226-32.478765-72.979225-72.296251 0-39.98748 32.650759-72.353249 72.979225-72.35325s73.036223 32.36577 73.036224 72.35325c0 39.931482-32.820752 72.297251-73.036224 72.297251zM171.968427 752.605318h53.581963v78.327022H171.968427v-78.327022z m0 121.385385h53.581963v78.327022H171.968427v-78.327022z m411.709348-79.17899H439.254266c-14.846436 0-26.791981 11.83155-26.791982 26.56399 0 0.284989 0.113996 0.568978 0.113996 0.682974 0 0.283989-0.113996 0.568978-0.113996 0.739972v173.203415c0 14.73244 11.945546 26.56399 26.791982 26.563991 14.789438 0 26.790981-11.83155 26.790981-26.563991V847.939693h91.863508v148.062371c0 14.73244 11.945546 26.56399 26.790981 26.563991 14.789438 0 26.734984-11.83155 26.734984-26.563991V822.911645c0-5.574788-1.706935-10.693593-4.721821-14.959431-4.719821-7.849702-13.252496-13.1395-23.036124-13.139501z m214.556843-42.205395h53.581963v78.326022H798.234618v-78.327022z m0 121.385385h53.581963v78.325022H798.234618v-78.325022zM996.978063 514.727361H739.019869V390.725076l-53.525965-27.529954v633.830903c0 14.675442 11.945546 26.506992 26.791982 26.506993 14.789438 0 26.733984-11.83155 26.733983-26.506993V674.281295h258.072189c14.845436 0 26.790981-11.83155 26.790982-26.56399v-106.595947c-0.113996-14.561446-12.059542-26.392997-26.904977-26.392997z m-26.790982 106.595948H739.758841v-53.525965H970.188081v53.525965zM57.351785 996.002064c0 14.73244 11.944546 26.56399 26.790981 26.563991 14.789438 0 26.790981-11.83155 26.790982-26.563991V671.948384H57.350785v324.05368z m855.497476 0c0 14.73244 11.945546 26.56399 26.791981 26.563991s26.790981-11.83155 26.790982-26.563991V671.948384H912.850261v324.05368zM284.878135 514.727361H26.805946c-14.846436 0-26.791981 11.83155-26.791981 26.56399v106.595948c0 14.675442 11.945546 26.506992 26.791981 26.506992h258.071189v322.631734c0 14.675442 11.945546 26.506992 26.790981 26.506993 14.846436 0 26.791981-10.409604 26.791982-25.085047V362.057165l-53.582963 27.587952V514.727361z m-0.852968 106.595948H53.596928v-53.525965H284.024167v53.525965z m-59.213749-201.588336c4.152842 0 8.361682-1.023961 12.229535-3.014886l274.794553-140.838645L786.745055 416.721087c3.867853 1.990924 8.019695 3.014885 12.229535 3.014886 9.612635 0 18.998278-5.289799 23.719098-14.277458 6.769743-12.969507 1.762933-28.952899-11.489563-35.835637L540.16043 230.661161a31.535801 31.535801 0 0 0-2.38891-3.69786c0.227991-1.705935 0.569978-3.41287 0.569979-5.289798V180.150081l152.783191-61.204673a25.199042 25.199042 0 0 0 4.606825-2.389909h0.113996c2.047922-1.30795 3.754857-2.89989 5.176803-4.606825 0.454983-0.397985 0.739972-0.852968 1.023961-1.30795a27.331961 27.331961 0 0 0 3.753857-6.086769v-0.169993c0.113996-0.569978 0.283989-0.966963 0.397985-1.535942 0.340987-1.137957 0.739972-2.161918 1.023961-3.299875 0.169994-0.852968 0.169994-1.591939 0.28399-2.274913 0.170993-1.023961 0.284989-1.876929 0.284989-2.843892 0-0.909965-0.113996-1.762933-0.284989-2.559903-0.112996-0.909965-0.112996-1.762933-0.28399-2.6159-0.113996-0.966963-0.568978-2.10492-0.852967-3.129881-0.169994-0.567978-0.284989-1.136957-0.569979-1.705935 0 0 0-0.112996-0.169993-0.112996-0.568978-1.30895-1.136957-2.445907-1.876929-3.583864-0.113996-0.283989-0.226991-0.739972-0.568978-1.023961-1.705935-2.388909-3.867853-4.549827-6.31376-6.427756-0.454983-0.283989-0.739972-0.568978-1.023961-0.852967-0.397985-0.283989-0.966963-0.568978-1.59294-0.852968a51.768032 51.768032 0 0 0-3.127881-1.706935c-0.169994 0-0.169994 0-0.169993-0.113995L523.32507 1.939856C512.688474-2.325982 501.025917 0.688904 493.689196 8.538605c-5.346797 4.834816-8.816665 11.659557-8.816664 19.509259v193.796632c0 1.989924 0.284989 3.980849 0.739971 5.801779-0.739972 1.023961-1.421946 2.046922-1.990924 3.184879L212.580883 369.622878c-13.082503 6.712745-18.316304 22.696137-11.546561 35.835637 4.777818 8.987658 14.163462 14.277457 23.776096 14.277458zM538.455494 65.305447l71.55728 28.838904-71.55728 28.66891V65.304447zM939.639242 1023.988H85.735706c-9.555637 0-17.291343-7.735706-17.291343-17.121349v-1.706935c0-9.441641 7.735706-17.177347 17.291343-17.177347h853.906536c9.499639 0 17.292343 7.735706 17.292343 17.177347v1.706935c0 9.385643-7.792704 17.121349-17.292343 17.121349z" p-id="4055"></path></svg>